<svg width="37" height="37" viewBox="0 0 37 37" fill="none" xmlns="http://www.w3.org/2000/svg">
<path d="M7.81284 34.8463L34.8458 7.81333L29.4392 2.40674L2.40625 29.4397L7.81284 34.8463Z" stroke="#E9E8EB" stroke-width="3" stroke-linecap="round" stroke-linejoin="round"/>
<path d="M24.0332 7.81299L29.4398 13.2196" stroke="#E9E8EB" stroke-width="3" stroke-linecap="round" stroke-linejoin="round"/>
<path d="M13.2196 2.40674C13.2196 3.36268 13.5994 4.27948 14.2753 4.95543C14.9513 5.63139 15.8681 6.01113 16.824 6.01113C15.8681 6.01113 14.9513 6.39088 14.2753 7.06684C13.5994 7.74279 13.2196 8.65958 13.2196 9.61553C13.2196 8.65958 12.8399 7.74279 12.1639 7.06684C11.488 6.39088 10.5712 6.01113 9.61523 6.01113C10.5712 6.01113 11.488 5.63139 12.1639 4.95543C12.8399 4.27948 13.2196 3.36268 13.2196 2.40674Z" stroke="#E9E8EB" stroke-width="3" stroke-linecap="round" stroke-linejoin="round"/>
<path d="M31.2411 20.4287C31.2411 21.3847 31.6209 22.3014 32.2968 22.9774C32.9728 23.6534 33.8896 24.0331 34.8455 24.0331C33.8896 24.0331 32.9728 24.4129 32.2968 25.0888C31.6209 25.7648 31.2411 26.6816 31.2411 27.6375C31.2411 26.6816 30.8614 25.7648 30.1854 25.0888C29.5095 24.4129 28.5927 24.0331 27.6367 24.0331C28.5927 24.0331 29.5095 23.6534 30.1854 22.9774C30.8614 22.3014 31.2411 21.3847 31.2411 20.4287Z" stroke="#E9E8EB" stroke-width="3" stroke-linecap="round" stroke-linejoin="round"/>
</svg>
