<svg xmlns="http://www.w3.org/2000/svg" width="42" height="26" fill="none" viewBox="0 0 42 26"><path fill="#fff" d="M38.6796 6.56014H38.5039L38.5904 6.41254L34.8896 0.136673H12.1577L15.8585 6.42347L15.9477 6.57107L19.6485 12.8469L19.735 12.9945L23.4358 19.2813L23.525 19.4289L27.2258 25.7157L27.3123 25.8633H34.7139L34.8003 25.7157L38.5039 19.4289L38.5904 19.2813L42.2911 12.9945L42.3748 12.8469L38.6796 6.56014ZM34.7139 13L31.0131 19.2868L31.0995 19.4344H30.9406L31.027 19.2868L27.3151 13H27.1421L27.2286 12.8551L23.5222 6.56014H23.3493L23.4358 6.41527L23.5222 6.56014H30.9406L31.027 6.41527L31.1135 6.56014L34.8143 12.8469L34.9035 12.9945L34.7139 13Z"/><path fill="#fff" d="M23.4358 19.2841L23.3493 19.4317H15.9477L15.8613 19.2841L15.772 19.4317H8.36765L8.28119 19.2841L4.5804 13L4.49394 12.8551L0.790357 6.56834L0.703903 6.42347L4.40749 0.136673H12.1577L15.8585 6.42074L15.772 6.56834H8.37043L8.28398 6.42347L8.19753 6.56834H8.37043L12.0712 12.8524L11.982 13H19.735L23.4358 19.2841Z"/></svg>