<svg width="15" height="15" viewBox="0 0 15 15" fill="none" xmlns="http://www.w3.org/2000/svg">
<path d="M10.7257 9.74919C11.5969 8.5598 11.9868 7.08533 11.8176 5.62076C11.6483 4.1562 10.9323 2.80955 9.81279 1.85022C8.69327 0.890903 7.25282 0.389661 5.77962 0.446778C4.30641 0.503896 2.90909 1.11516 1.86721 2.15828C0.825337 3.2014 0.21574 4.59945 0.160379 6.07272C0.105019 7.54599 0.607979 8.98585 1.56863 10.1042C2.52929 11.2226 3.87679 11.937 5.34156 12.1045C6.80633 12.272 8.28033 11.8803 9.46868 11.0077C9.49568 11.0437 9.52343 11.0782 9.55568 11.1112L13.0207 14.5762C13.1895 14.7451 13.4184 14.84 13.6572 14.84C13.8959 14.8401 14.1249 14.7453 14.2938 14.5766C14.4627 14.4078 14.5576 14.1788 14.5577 13.9401C14.5577 13.7013 14.463 13.4723 14.2942 13.3034L10.8292 9.83844C10.797 9.80585 10.7624 9.77652 10.7257 9.74919ZM10.9582 6.29019C10.9582 6.94023 10.8301 7.58391 10.5814 8.18447C10.3326 8.78503 9.96801 9.33072 9.50836 9.79037C9.04871 10.25 8.50303 10.6146 7.90247 10.8634C7.3019 11.1122 6.65823 11.2402 6.00818 11.2402C5.35814 11.2402 4.71446 11.1122 4.1139 10.8634C3.51334 10.6146 2.96765 10.25 2.508 9.79037C2.04835 9.33072 1.68374 8.78503 1.43498 8.18447C1.18622 7.58391 1.05818 6.94023 1.05818 6.29019C1.05818 4.97737 1.5797 3.71832 2.508 2.79001C3.43631 1.86171 4.69536 1.34019 6.00818 1.34019C7.321 1.34019 8.58006 1.86171 9.50836 2.79001C10.4367 3.71832 10.9582 4.97737 10.9582 6.29019Z" fill="#B8B5C3"/>
</svg>
